<svg width="48" height="47" viewBox="0 0 48 47" fill="none" xmlns="http://www.w3.org/2000/svg">
<rect width="47" height="47" transform="translate(0.5)" fill="#181818"/>
<path fill-rule="evenodd" clip-rule="evenodd" d="M25.2316 12.8598C25.8636 12.1018 27.0946 12.6198 26.9946 13.6018L26.2886 20.4998H31.9996C32.1896 20.4999 32.3757 20.5541 32.536 20.6561C32.6963 20.7581 32.8243 20.9036 32.9049 21.0757C32.9855 21.2478 33.0153 21.4393 32.991 21.6277C32.9667 21.8162 32.8892 21.9938 32.7676 22.1398L22.7676 34.1398C22.1356 34.8978 20.9046 34.3798 21.0046 33.3978L21.7106 26.4998H15.9996C15.8096 26.4997 15.6236 26.4455 15.4632 26.3435C15.3029 26.2416 15.175 26.096 15.0944 25.9239C15.0138 25.7518 14.9839 25.5604 15.0082 25.3719C15.0325 25.1834 15.11 25.0058 15.2316 24.8598L25.2316 12.8598ZM18.1346 24.4998H23.4826C23.5385 24.4998 23.5938 24.5115 23.6449 24.5342C23.696 24.5569 23.7418 24.59 23.7793 24.6315C23.8168 24.6729 23.8452 24.7218 23.8626 24.7749C23.8801 24.828 23.8862 24.8842 23.8806 24.9398L23.3276 30.3448L29.8646 22.4998H24.5166C24.4607 22.4998 24.4054 22.4881 24.3543 22.4654C24.3033 22.4427 24.2575 22.4096 24.22 22.3681C24.1825 22.3267 24.1541 22.2778 24.1366 22.2247C24.1192 22.1716 24.113 22.1154 24.1186 22.0598L24.6716 16.6558L18.1346 24.4998Z" fill="white"/>
</svg>
