<svg width="53" height="53" viewBox="0 0 53 53" fill="none" xmlns="http://www.w3.org/2000/svg">
<g filter="url(#filter0_g_1_78)">
<path d="M9.64864 48.1565V40.4648C9.64864 37.711 8.92714 36.2788 7.51014 33.8847C5.78272 30.9599 4.85963 27.6304 4.83451 24.2337C4.80939 20.8371 5.68315 17.4942 7.36713 14.5443C9.05111 11.5943 11.4854 9.14229 14.423 7.43693C17.3606 5.73156 20.6971 4.83355 24.0938 4.83398C29.2008 4.83456 34.0986 6.86327 37.7102 10.4741C41.3218 14.0849 43.3516 18.9821 43.3533 24.0892C43.3533 25.3458 43.3533 25.9742 43.4053 26.3252C43.531 27.1658 43.9253 27.8895 44.3088 28.6392L48.1676 36.1228L45.1343 37.6395C44.2568 38.0772 43.817 38.296 43.5115 38.7012C43.206 39.1063 43.1193 39.5657 42.9481 40.4778L42.9308 40.5688C42.5343 42.6662 42.0988 44.9802 40.8725 46.4405C40.4391 46.954 39.9018 47.3722 39.2973 47.669C38.2985 48.1565 37.07 48.1565 34.613 48.1565C33.4755 48.1565 32.3358 48.1825 31.1983 48.1565C28.5051 48.0893 26.501 45.823 26.501 43.1948" fill="#FFCE64"/>
<path d="M9.64864 48.1565V40.4648C9.64864 37.711 8.92714 36.2788 7.51014 33.8847C5.78272 30.9599 4.85963 27.6304 4.83451 24.2337C4.80939 20.8371 5.68315 17.4942 7.36713 14.5443C9.05111 11.5943 11.4854 9.14229 14.423 7.43693C17.3606 5.73156 20.6971 4.83355 24.0938 4.83398C29.2008 4.83456 34.0986 6.86327 37.7102 10.4741C41.3218 14.0849 43.3516 18.9821 43.3533 24.0892C43.3533 25.3458 43.3533 25.9742 43.4053 26.3252C43.531 27.1658 43.9253 27.8895 44.3088 28.6392L48.1676 36.1228L45.1343 37.6395C44.2568 38.0772 43.817 38.296 43.5115 38.7012C43.206 39.1063 43.1193 39.5657 42.9481 40.4778L42.9308 40.5688C42.5343 42.6662 42.0988 44.9802 40.8725 46.4405C40.4391 46.954 39.9018 47.3722 39.2973 47.669C38.2985 48.1565 37.07 48.1565 34.613 48.1565C33.4755 48.1565 32.3358 48.1825 31.1983 48.1565C28.5051 48.0893 26.501 45.823 26.501 43.1948" stroke="black" stroke-linecap="round" stroke-linejoin="round"/>
<path d="M31.6742 23.3202C30.7512 23.3202 29.9084 22.9692 29.2692 22.3951L31.6742 23.3202ZM31.6742 23.3202C31.6742 25.8032 30.2355 28.1606 27.4665 28.1606C24.6975 28.1606 23.2589 30.5179 23.2589 33.0009M31.6742 23.3202C36.3325 23.3202 36.3325 16.0597 31.6742 16.0597C31.2495 16.0612 30.8473 16.1298 30.4674 16.2656C30.6949 10.8532 22.8927 9.38422 21.1247 14.4542M23.2589 18.4777C23.2589 16.8007 22.4139 15.3231 21.1247 14.4542L23.2589 18.4777ZM21.1247 14.4542C17.112 11.7459 11.7647 16.6057 14.3084 20.9391C10.04 21.5782 10.495 28.1606 14.8435 28.1606C15.4233 28.1603 15.9945 28.0199 16.5083 27.7513C17.0221 27.4827 17.4634 27.0938 17.7945 26.6179" fill="#FFCE64"/>
<path d="M31.6742 23.3202C30.7512 23.3202 29.9084 22.9692 29.2692 22.3951M31.6742 23.3202C31.6742 25.8032 30.2355 28.1606 27.4665 28.1606C24.6975 28.1606 23.2589 30.5179 23.2589 33.0009M31.6742 23.3202C36.3325 23.3202 36.3325 16.0597 31.6742 16.0597C31.2495 16.0612 30.8473 16.1298 30.4674 16.2656C30.6949 10.8532 22.8927 9.38422 21.1247 14.4542M21.1247 14.4542C22.4139 15.3231 23.2589 16.8007 23.2589 18.4777M21.1247 14.4542C17.112 11.7459 11.7647 16.6057 14.3084 20.9391C10.04 21.5782 10.495 28.1606 14.8435 28.1606C15.4233 28.1603 15.9945 28.0199 16.5083 27.7513C17.0221 27.4827 17.4634 27.0938 17.7945 26.6179" stroke="black" stroke-linecap="round" stroke-linejoin="round"/>
</g>
<defs>
<filter id="filter0_g_1_78" x="-1.5" y="-1.5" width="56" height="56" filterUnits="userSpaceOnUse" color-interpolation-filters="sRGB">
<feFlood flood-opacity="0" result="BackgroundImageFix"/>
<feBlend mode="normal" in="SourceGraphic" in2="BackgroundImageFix" result="shape"/>
<feTurbulence type="fractalNoise" baseFrequency="1 1" numOctaves="3" seed="4135" />
<feDisplacementMap in="shape" scale="4" xChannelSelector="R" yChannelSelector="G" result="displacedImage" width="100%" height="100%" />
<feMerge result="effect1_texture_1_78">
<feMergeNode in="displacedImage"/>
</feMerge>
</filter>
</defs>
</svg>
