<svg width="56" height="55" viewBox="0 0 56 55" fill="none" xmlns="http://www.w3.org/2000/svg">
<g filter="url(#filter0_g_1_85)">
<path d="M34.4415 7.0802C36.1779 7.10513 37.8363 7.80561 39.0645 9.03333L48.7813 18.7501C50.0312 20.0017 50.7335 21.6981 50.7335 23.4669C50.7334 25.1252 50.1159 26.7194 49.0089 27.9435L48.7813 28.1837L29.7149 47.296C29.5213 47.4896 29.2911 47.6434 29.0381 47.7482C28.7853 47.8529 28.514 47.9064 28.2403 47.9064C27.6875 47.9063 27.1576 47.6869 26.7667 47.296C26.5731 47.1024 26.4193 46.8722 26.3145 46.6193C26.2098 46.3664 26.1553 46.0951 26.1553 45.8214C26.1554 45.5479 26.2099 45.2772 26.3145 45.0245C26.4193 44.7716 26.5731 44.5414 26.7667 44.3478L37.3536 33.7599L37.4952 33.6183L37.3536 33.4777L35.585 31.7091L35.4444 31.8507L24.8565 42.4376C24.6629 42.6312 24.4327 42.785 24.1797 42.8898C23.9269 42.9944 23.6556 43.048 23.3819 43.048C23.1082 43.0479 22.8369 42.9945 22.584 42.8898C22.3312 42.785 22.1018 42.6311 21.9083 42.4376C21.7148 42.2441 21.5609 42.0146 21.4561 41.7618C21.3514 41.509 21.298 41.2376 21.2979 40.964C21.2979 40.6903 21.3514 40.419 21.4561 40.1661C21.5609 39.9132 21.7147 39.683 21.9083 39.4894L32.4952 28.9015L32.6368 28.7609L30.7266 26.8507L30.586 26.9923L20.0001 37.5773C19.1601 38.3963 17.8411 38.3939 17.0264 37.5792C16.8327 37.3859 16.6792 37.1562 16.5743 36.9034C16.4694 36.6506 16.4151 36.3793 16.4151 36.1056C16.4151 35.8319 16.4694 35.5606 16.5743 35.3077C16.6792 35.0548 16.8326 34.8244 17.0264 34.631L27.6143 24.0431L27.7559 23.9025L25.8458 21.9923L15.1192 32.7189C14.2792 33.5379 12.9602 33.5355 12.1456 32.7208L12.0079 32.5695C11.8779 32.4113 11.7712 32.2348 11.6924 32.045C11.5876 31.7922 11.5343 31.5209 11.5342 31.2472C11.5342 30.9735 11.5877 30.7021 11.6924 30.4493C11.7711 30.2597 11.878 30.083 12.0079 29.9249L12.1456 29.7726L24.7686 17.1495L33.2442 25.6251C33.5139 25.8947 34.4378 26.6461 35.6768 26.9581C36.9319 27.2742 38.5016 27.135 40.0118 25.6251C41.8774 23.7595 41.8774 20.7222 40.0118 18.8566L29.9171 8.76086C31.161 7.65748 32.7739 7.05632 34.4415 7.0802ZM21.6524 7.08118C23.4212 7.08126 25.1177 7.78339 26.3692 9.03333L38.1251 20.7667C38.9407 21.5824 38.9407 22.8993 38.1251 23.715C37.3604 24.4794 36.1148 24.5274 35.2901 23.8585L35.1309 23.715L24.8868 13.4943L24.7462 13.3527L24.6046 13.4943L8.586 29.4884L7.21783 28.1837H7.21881C5.96886 26.9322 5.26673 25.2357 5.26666 23.4669C5.26666 21.6981 5.96887 20.0017 7.21881 18.7501L16.9346 9.03235C18.1862 7.78246 19.8836 7.08118 21.6524 7.08118Z" fill="#A7D469" stroke="black" stroke-width="0.4"/>
</g>
<defs>
<filter id="filter0_g_1_85" x="-1.5" y="-2" width="59" height="59" filterUnits="userSpaceOnUse" color-interpolation-filters="sRGB">
<feFlood flood-opacity="0" result="BackgroundImageFix"/>
<feBlend mode="normal" in="SourceGraphic" in2="BackgroundImageFix" result="shape"/>
<feTurbulence type="fractalNoise" baseFrequency="1 1" numOctaves="3" seed="4135" />
<feDisplacementMap in="shape" scale="4" xChannelSelector="R" yChannelSelector="G" result="displacedImage" width="100%" height="100%" />
<feMerge result="effect1_texture_1_85">
<feMergeNode in="displacedImage"/>
</feMerge>
</filter>
</defs>
</svg>
