<svg width="58" height="58" viewBox="0 0 58 58" fill="none" xmlns="http://www.w3.org/2000/svg">
<g clip-path="url(#clip0_1_31)" filter="url(#filter0_g_1_31)">
<mask id="path-1-inside-1_1_31" fill="white">
<path d="M37.8485 53.1684C34.696 41.726 22.5892 39.241 19.068 30.8723C16.4178 24.5738 20.4388 17.7662 23.3197 13.9789C23.3197 13.9789 20.4534 10.1211 16.1567 6.75344C14.7147 5.62502 17.3223 3.06609 18.5572 3.96871C34.1903 15.4028 36.7307 40.7336 36.7307 40.7336C36.7307 40.7336 41.7667 24.6902 30.5016 10.0473C33.8164 10.6241 42.7027 12.4894 45.8229 22.3272C50.0608 35.6661 38.5829 55.8394 37.8485 53.1684Z"/>
</mask>
<path d="M37.8485 53.1684C34.696 41.726 22.5892 39.241 19.068 30.8723C16.4178 24.5738 20.4388 17.7662 23.3197 13.9789C23.3197 13.9789 20.4534 10.1211 16.1567 6.75344C14.7147 5.62502 17.3223 3.06609 18.5572 3.96871C34.1903 15.4028 36.7307 40.7336 36.7307 40.7336C36.7307 40.7336 41.7667 24.6902 30.5016 10.0473C33.8164 10.6241 42.7027 12.4894 45.8229 22.3272C50.0608 35.6661 38.5829 55.8394 37.8485 53.1684Z" fill="#B6D463" stroke="black" mask="url(#path-1-inside-1_1_31)"/>
</g>
<defs>
<filter id="filter0_g_1_31" x="-3.0005" y="-2.99995" width="63.563" height="63.563" filterUnits="userSpaceOnUse" color-interpolation-filters="sRGB">
<feFlood flood-opacity="0" result="BackgroundImageFix"/>
<feBlend mode="normal" in="SourceGraphic" in2="BackgroundImageFix" result="shape"/>
<feTurbulence type="fractalNoise" baseFrequency="2 2" numOctaves="3" seed="4143" />
<feDisplacementMap in="shape" scale="6" xChannelSelector="R" yChannelSelector="G" result="displacedImage" width="100%" height="100%" />
<feMerge result="effect1_texture_1_31">
<feMergeNode in="displacedImage"/>
</feMerge>
</filter>
<clipPath id="clip0_1_31">
<rect width="47" height="47" fill="white" transform="translate(57.5625 12.1646) rotate(105)"/>
</clipPath>
</defs>
</svg>
