<svg width="63" height="63" viewBox="0 0 63 63" fill="none" xmlns="http://www.w3.org/2000/svg">
<path d="M33.81 18.4196L46.3417 21.756L33.81 18.4196ZM31.1272 28.3841L37.3905 30.0536L31.1272 28.3841ZM31.4396 47.1608L33.9439 47.8301C41.0314 49.7201 44.5751 50.6625 47.3681 49.0586C50.1585 47.4574 51.1087 43.932 53.0066 36.8865L55.692 26.9194C57.5925 19.8713 58.5401 16.3485 56.9284 13.5713C55.3166 10.794 51.7755 9.85163 44.6854 7.96426L42.1811 7.29488C35.0936 5.40488 31.5499 4.46251 28.7595 6.06638C25.9665 7.66763 25.0162 11.193 23.1157 18.2385L20.433 28.2056C18.5325 35.2538 17.5822 38.7765 19.1966 41.5538C20.8084 44.3284 24.3521 45.2734 31.4396 47.1608Z" fill="#FFD5FE"/>
<path d="M33.81 18.4196L46.3417 21.756M31.1272 28.3841L37.3905 30.0536M31.4396 47.1608L33.9439 47.8301C41.0314 49.7201 44.5751 50.6625 47.3681 49.0586C50.1585 47.4574 51.1087 43.932 53.0066 36.8865L55.692 26.9194C57.5925 19.8713 58.5401 16.3485 56.9284 13.5713C55.3166 10.794 51.7755 9.85163 44.6854 7.96426L42.1811 7.29488C35.0936 5.40488 31.5499 4.46251 28.7595 6.06638C25.9665 7.66763 25.0162 11.193 23.1157 18.2385L20.433 28.2056C18.5325 35.2538 17.5822 38.7765 19.1966 41.5538C20.8084 44.3284 24.3521 45.2734 31.4396 47.1608Z" stroke="black" stroke-width="3" stroke-linecap="round" stroke-linejoin="round"/>
<path d="M31.5 54.9832L29.001 55.6657C21.9293 57.5899 18.396 58.5533 15.6083 56.9179C12.8258 55.2851 11.8755 51.6941 9.98288 44.5069L7.30276 34.3429C5.40751 27.1583 4.45988 23.5646 6.06901 20.7349C7.46026 18.2858 10.5 18.375 14.4375 18.375" stroke="black" stroke-width="3" stroke-linecap="round" stroke-linejoin="round"/>
</svg>
