<svg width="56" height="55" viewBox="0 0 56 55" fill="none" xmlns="http://www.w3.org/2000/svg">
<g filter="url(#filter0_g_1_89)">
<path d="M28 5.45605C33.8444 5.46231 39.4474 7.78727 43.5801 11.9199C47.7127 16.0526 50.0377 21.6556 50.0439 27.5C50.0439 31.8598 48.7513 36.122 46.3291 39.7471C43.9069 43.3721 40.4635 46.1978 36.4355 47.8662C32.4077 49.5345 27.9752 49.9707 23.6992 49.1201C19.4233 48.2695 15.4959 46.1697 12.4131 43.0869C9.33028 40.0041 7.23048 36.0767 6.37988 31.8008C5.52934 27.5248 5.96547 23.0923 7.63379 19.0645C9.30223 15.0365 12.1279 11.5931 15.7529 9.1709C19.2648 6.82436 23.3746 5.53804 27.5918 5.45996L28 5.45605ZM35.3496 9.75586C31.8402 8.30226 27.9785 7.92202 24.2529 8.66309C20.5274 9.40419 17.1049 11.2329 14.4189 13.9189C11.7329 16.6049 9.90418 20.0273 9.16309 23.7529C8.42202 27.4785 8.80226 31.3402 10.2559 34.8496C11.7095 38.359 14.1707 41.3593 17.3291 43.4697C20.4875 45.5801 24.2014 46.7061 28 46.7061C33.0919 46.7003 37.9737 44.6748 41.5742 41.0742C45.1748 37.4737 47.2003 32.592 47.2061 27.5C47.2061 23.7014 46.0801 19.9876 43.9697 16.8291C41.8593 13.6707 38.859 11.2095 35.3496 9.75586ZM28 12.3311C32.0216 12.3356 35.877 13.9356 38.7207 16.7793C41.5644 19.623 43.1644 23.4784 43.1689 27.5C43.1689 30.5001 42.2791 33.4332 40.6123 35.9277C38.9456 38.4221 36.5763 40.3656 33.8047 41.5137C31.033 42.6617 27.9834 42.9622 25.041 42.377C22.0986 41.7917 19.3958 40.347 17.2744 38.2256C15.153 36.1042 13.7083 33.4014 13.123 30.459C12.5378 27.5166 12.8383 24.467 13.9863 21.6953C15.1344 18.9237 17.0779 16.5544 19.5723 14.8877C21.9109 13.3251 24.6351 12.4456 27.4385 12.3418L28 12.3311Z" fill="#D13BFF" stroke="black" stroke-width="0.6"/>
</g>
<defs>
<filter id="filter0_g_1_89" x="-1.5" y="-2" width="59" height="59" filterUnits="userSpaceOnUse" color-interpolation-filters="sRGB">
<feFlood flood-opacity="0" result="BackgroundImageFix"/>
<feBlend mode="normal" in="SourceGraphic" in2="BackgroundImageFix" result="shape"/>
<feTurbulence type="fractalNoise" baseFrequency="1 1" numOctaves="3" seed="4135" />
<feDisplacementMap in="shape" scale="4" xChannelSelector="R" yChannelSelector="G" result="displacedImage" width="100%" height="100%" />
<feMerge result="effect1_texture_1_89">
<feMergeNode in="displacedImage"/>
</feMerge>
</filter>
</defs>
</svg>
